<?xml version="1.0" encoding="UTF-8"?>
<svg width="735px" height="196px" viewBox="0 0 735 196" version="1.1" xmlns="http://www.w3.org/2000/svg" xmlns:xlink="http://www.w3.org/1999/xlink">
    <!-- Generator: Sketch 52 (66869) - http://www.bohemiancoding.com/sketch -->
    <title>[ TODO APP ] 2</title>
    <desc>Created with Sketch.</desc>
    <g id="Page-1" stroke="none" stroke-width="1" fill="none" fill-rule="evenodd">
        <g id="[-TODO-APP-]-2" fill="#1A1A1A">
            <path d="M0.0412005459,185.422415 L32.5224143,18.3210562 L86.0381585,28.7234631 L81.1696097,53.7699755 L61.3630709,49.9199743 L38.6189548,166.928308 L58.4254935,170.778309 L53.5569447,195.824822 L0.0412005459,185.422415 Z M89.3170407,147.369267 L89.3170407,83.4224492 L65.1086027,83.4224492 L65.1086027,66.0654559 L135.22172,66.0654559 L135.22172,83.4224492 L111.013282,83.4224492 L111.013282,147.369267 L89.3170407,147.369267 Z M178.565265,148.396983 C170.267363,148.396983 163.035354,146.703171 156.869023,143.315495 C150.702692,139.927819 145.963824,135.074761 142.652275,128.756175 C139.340727,122.437589 137.684978,115.053328 137.684978,106.603171 C137.684978,98.1530131 139.359759,90.8068153 142.709371,84.5643567 C146.058983,78.321898 150.797851,73.5069031 156.926119,70.1192274 C163.054386,66.7315516 170.267363,65.0377392 178.565265,65.0377392 C186.863167,65.0377392 194.076144,66.7315516 200.204411,70.1192274 C206.332678,73.5069031 211.033484,78.321898 214.306968,84.5643567 C217.580453,90.8068153 219.21717,98.1530131 219.21717,106.603171 C219.21717,115.053328 217.580453,122.437589 214.306968,128.756175 C211.033484,135.074761 206.332678,139.927819 200.204411,143.315495 C194.076144,146.703171 186.863167,148.396983 178.565265,148.396983 Z M178.565265,132.067707 C184.655468,132.067707 189.4324,129.898104 192.896203,125.558834 C196.360007,121.219564 198.091882,114.901073 198.091882,106.603171 C198.091882,98.3813958 196.360007,92.1199992 192.896203,87.8187929 C189.4324,83.5175867 184.655468,81.3670158 178.565265,81.3670158 C172.475061,81.3670158 167.717161,83.4985551 164.291422,87.7616975 C160.865682,92.02484 159.152838,98.3052682 159.152838,106.603171 C159.152838,114.9772 160.865682,121.314723 164.291422,125.61593 C167.717161,129.917136 172.475061,132.067707 178.565265,132.067707 Z M232.185976,66.0654559 L265.415483,66.0654559 C274.398534,66.0654559 282.144395,67.6831419 288.6533,70.9185626 C295.162205,74.1539832 300.148484,78.8167254 303.612288,84.9069289 C307.076091,90.9971324 308.807967,98.2291407 308.807967,106.603171 C308.807967,115.053328 307.095123,122.342431 303.669383,128.470698 C300.243644,134.598966 295.276396,139.280739 288.767491,142.51616 C282.258586,145.751581 274.474661,147.369267 265.415483,147.369267 L232.185976,147.369267 L232.185976,66.0654559 Z M263.931004,130.240655 C271.848268,130.240655 277.767096,128.2804 281.687665,124.359831 C285.608233,120.439263 287.568488,114.520435 287.568488,106.603171 C287.568488,90.997024 279.689405,83.1940677 263.931004,83.1940677 L253.653836,83.1940677 L253.653836,130.240655 L263.931004,130.240655 Z M360.487435,148.396983 C352.189533,148.396983 344.957525,146.703171 338.791194,143.315495 C332.624863,139.927819 327.885994,135.074761 324.574446,128.756175 C321.262898,122.437589 319.607149,115.053328 319.607149,106.603171 C319.607149,98.1530131 321.281929,90.8068153 324.631541,84.5643567 C327.981153,78.321898 332.720022,73.5069031 338.848289,70.1192274 C344.976556,66.7315516 352.189533,65.0377392 360.487435,65.0377392 C368.785338,65.0377392 375.998314,66.7315516 382.126582,70.1192274 C388.254849,73.5069031 392.955654,78.321898 396.229139,84.5643567 C399.502623,90.8068153 401.139341,98.1530131 401.139341,106.603171 C401.139341,115.053328 399.502623,122.437589 396.229139,128.756175 C392.955654,135.074761 388.254849,139.927819 382.126582,143.315495 C375.998314,146.703171 368.785338,148.396983 360.487435,148.396983 Z M360.487435,132.067707 C366.577639,132.067707 371.354571,129.898104 374.818374,125.558834 C378.282177,121.219564 380.014053,114.901073 380.014053,106.603171 C380.014053,98.3813958 378.282177,92.1199992 374.818374,87.8187929 C371.354571,83.5175867 366.577639,81.3670158 360.487435,81.3670158 C354.397232,81.3670158 349.639332,83.4985551 346.213592,87.7616975 C342.787853,92.02484 341.075009,98.3052682 341.075009,106.603171 C341.075009,114.9772 342.787853,121.314723 346.213592,125.61593 C349.639332,129.917136 354.397232,132.067707 360.487435,132.067707 Z M509.636862,147.369267 L502.442845,130.583227 L466.358569,130.583227 L459.164552,147.369267 L437.696692,147.369267 L475.722211,66.0654559 L492.622441,66.0654559 L530.76215,147.369267 L509.636862,147.369267 Z M473.324205,114.482332 L495.47721,114.482332 L484.400707,88.7894142 L473.324205,114.482332 Z M535.851795,66.0654559 L574.562457,66.0654559 C583.850018,66.0654559 591.043963,68.2921532 596.144508,72.7456145 C601.245054,77.1990758 603.795288,83.2320932 603.795288,90.8448477 C603.795288,98.3814745 601.20699,104.39546 596.030317,108.886985 C590.853644,113.378511 583.697763,115.624239 574.562457,115.624239 L557.319655,115.624239 L557.319655,147.369267 L535.851795,147.369267 L535.851795,66.0654559 Z M571.707689,99.6375351 C579.777208,99.6375351 583.811908,96.782795 583.811908,91.0732292 C583.811908,88.1803825 582.841296,85.9917484 580.900044,84.5072613 C578.958791,83.0227742 575.894704,82.2805417 571.707689,82.2805417 L557.319655,82.2805417 L557.319655,99.6375351 L571.707689,99.6375351 Z M614.480279,66.0654559 L653.190942,66.0654559 C662.478502,66.0654559 669.672448,68.2921532 674.772993,72.7456145 C679.873538,77.1990758 682.423773,83.2320932 682.423773,90.8448477 C682.423773,98.3814745 679.835475,104.39546 674.658802,108.886985 C669.482129,113.378511 662.326247,115.624239 653.190942,115.624239 L635.94814,115.624239 L635.94814,147.369267 L614.480279,147.369267 L614.480279,66.0654559 Z M650.336173,99.6375351 C658.405693,99.6375351 662.440392,96.782795 662.440392,91.0732292 C662.440392,88.1803825 661.469781,85.9917484 659.528528,84.5072613 C657.587276,83.0227742 654.523188,82.2805417 650.336173,82.2805417 L635.94814,82.2805417 L635.94814,99.6375351 L650.336173,99.6375351 Z M734.219822,133.727284 L691.61592,148.396983 L684.750187,128.457447 L700.518179,123.028092 L668.443934,29.8777197 L652.675942,35.3070747 L645.810209,15.3675382 L688.41411,0.697838573 L734.219822,133.727284 Z" id="[-TODO-APP-]"></path>
        </g>
    </g>
</svg>