<?xml version="1.0" encoding="UTF-8"?>
<svg width="727px" height="159px" viewBox="0 0 727 159" version="1.1" xmlns="http://www.w3.org/2000/svg" xmlns:xlink="http://www.w3.org/1999/xlink">
    <!-- Generator: Sketch 52 (66869) - http://www.bohemiancoding.com/sketch -->
    <title>bracket order</title>
    <desc>Created with Sketch.</desc>
    <g id="Page-1" stroke="none" stroke-width="1" fill="none" fill-rule="evenodd">
        <g id="bracket-order" fill="#1A1A1A">
            <path d="M16.7601657,105.405401 C16.7601657,98.8428682 14.7810189,93.8168768 10.8226657,90.327276 C8.42682042,88.1918486 4.9893548,86.4991572 0.510165736,85.249151 L0.510165736,75.796026 C5.56227433,74.0772674 9.12994699,72.1762447 11.2132907,70.092901 C14.9112259,66.499133 16.7601657,61.0043963 16.7601657,53.608526 L16.7601657,32.671026 C16.7601657,30.0147627 17.2028696,27.2283322 18.0882907,24.311651 C19.6507985,19.2595424 22.307022,15.2491658 26.0570407,12.280401 C29.4945579,9.57205411 33.5309759,7.77519708 38.1664157,6.88977598 C40.9789298,6.31685645 45.0153478,6.00435958 50.2757907,5.95227598 L50.2757907,18.374151 C45.9528525,19.3116557 43.0101735,20.5616432 41.4476657,22.124151 C39.0518204,24.5199963 37.8539157,28.7126627 37.8539157,34.702276 L37.8539157,52.827276 C37.8539157,58.6606385 37.0726735,63.2960088 35.5101657,66.733526 C32.8539025,72.5148049 27.6456212,77.202258 19.8851657,80.796026 C26.9164509,83.6606236 31.6429661,86.9939236 34.0648532,90.796026 C36.4867403,94.5981283 37.7497485,99.8584924 37.8539157,106.577276 L37.8539157,126.342901 C37.8539157,132.12418 39.2601517,136.290805 42.0726657,138.842901 C43.6351735,140.353325 46.3695212,141.681437 50.2757907,142.827276 L50.2757907,155.249151 L44.7289157,155.092901 C37.2809618,154.884567 30.7575896,152.658026 25.1586032,148.413213 C19.5596169,144.168401 16.7601657,137.983567 16.7601657,129.858526 L16.7601657,105.405401 Z M124.302041,28.952276 C135.500013,28.952276 144.262946,32.988694 150.591103,41.061651 C156.91926,49.134608 160.083291,59.5511705 160.083291,72.311651 C160.083291,85.5408838 156.958322,96.5043158 150.708291,105.202276 C144.458259,113.900236 135.734388,118.249151 124.536416,118.249151 C117.50513,118.249151 111.854145,116.842915 107.583291,114.030401 C105.031195,112.363726 102.270805,109.447088 99.3020406,105.280401 L99.3020406,115.983526 L77.5051656,115.983526 L77.5051656,0.983525982 L99.6926656,0.983525982 L99.6926656,41.921026 C102.50518,37.9626729 105.604107,34.9418697 108.989541,32.858526 C112.999977,30.2543463 118.104093,28.952276 124.302041,28.952276 Z M118.598916,99.889776 C124.328111,99.889776 128.781191,97.5720908 131.958291,92.936651 C135.13539,88.3012111 136.723916,82.2075221 136.723916,74.655401 C136.723916,68.6137041 135.942673,63.6137541 134.380166,59.655401 C131.411401,52.1553635 125.942705,48.405401 117.973916,48.405401 C109.900959,48.405401 104.354139,52.0772393 101.333291,59.421026 C99.7707828,63.3272955 98.9895406,68.3793283 98.9895406,74.577276 C98.9895406,81.8689791 100.604108,87.9105854 103.833291,92.702276 C107.062473,97.4939666 111.984299,99.889776 118.598916,99.889776 Z M227.390791,28.796026 C227.807459,28.796026 228.159018,28.8090467 228.445478,28.8350885 C228.731938,28.8611303 229.369952,28.9001924 230.359541,28.952276 L230.359541,51.764776 C228.953283,51.6085252 227.703296,51.5043596 226.609541,51.452276 C225.515785,51.4001924 224.630377,51.374151 223.953291,51.374151 C214.994912,51.374151 208.979348,54.2907885 205.906416,60.124151 C204.187657,63.4054174 203.328291,68.4574502 203.328291,75.280401 L203.328291,115.983526 L180.906416,115.983526 L180.906416,30.827276 L202.156416,30.827276 L202.156416,45.671026 C205.593933,39.9939143 208.588694,36.1137447 211.140791,34.030401 C215.307478,30.5408002 220.724091,28.796026 227.390791,28.796026 Z M295.47954,74.577276 C294.073283,75.4626971 292.654027,76.1788357 291.221728,76.7257135 C289.789429,77.2725912 287.823303,77.7803986 285.32329,78.249151 L280.32329,79.186651 C275.635767,80.0199885 272.276426,81.0356033 270.245165,82.233526 C266.807648,84.2647861 265.088915,87.4157963 265.088915,91.686651 C265.088915,95.4887533 266.143592,98.2361217 268.252978,99.9288385 C270.362363,101.621555 272.927442,102.467901 275.94829,102.467901 C280.739981,102.467901 285.153999,101.061665 289.190478,98.249151 C293.226956,95.4366369 295.32329,90.3064799 295.47954,82.858526 L295.47954,74.577276 Z M281.963915,64.186651 C286.078519,63.665815 289.021198,63.0147799 290.79204,62.233526 C293.96914,60.8793525 295.557665,58.7699986 295.557665,55.905401 C295.557665,52.4158002 294.34674,50.0069701 291.924853,48.6788385 C289.502966,47.3507068 285.948314,46.686651 281.26079,46.686651 C276.000347,46.686651 272.276426,47.9887213 270.088915,50.592901 C268.526408,52.519994 267.484751,55.1241346 266.963915,58.405401 L245.47954,58.405401 C245.948293,50.9574471 248.031605,44.8377166 251.72954,40.046026 C257.614986,32.5459885 267.719052,28.796026 282.04204,28.796026 C291.365004,28.796026 299.646171,30.6449658 306.88579,34.342901 C314.12541,38.0408361 317.745165,45.019933 317.745165,55.280401 L317.745165,94.342901 C317.745165,97.0512479 317.797248,100.332465 317.901415,104.186651 C318.057666,107.103332 318.50037,109.082479 319.22954,110.124151 C319.958711,111.165823 321.05245,112.025189 322.51079,112.702276 L322.51079,115.983526 L298.29204,115.983526 C297.614954,114.264767 297.146208,112.6502 296.88579,111.139776 C296.625372,109.629352 296.417041,107.910619 296.26079,105.983526 C293.187858,109.316876 289.646227,112.155389 285.63579,114.499151 C280.8441,117.259581 275.427487,118.639776 269.38579,118.639776 C261.677419,118.639776 255.310295,116.439277 250.284228,112.038213 C245.258161,107.63715 242.745165,101.400233 242.745165,93.327276 C242.745165,82.8584736 246.781583,75.2804244 254.85454,70.592901 C259.281646,68.0408049 265.791997,66.2179065 274.38579,65.124151 L281.963915,64.186651 Z M393.490165,61.374151 C393.073497,58.1970518 392.005799,55.3324971 390.28704,52.780401 C387.787028,49.3428838 383.906858,47.624151 378.646415,47.624151 C371.146378,47.624151 366.016221,51.3480721 363.25579,58.796026 C361.79745,62.7543791 361.06829,68.0147432 361.06829,74.577276 C361.06829,80.8273072 361.79745,85.8532986 363.25579,89.655401 C365.912054,96.7387697 370.912004,100.280401 378.25579,100.280401 C383.46415,100.280401 387.162029,98.874165 389.34954,96.061651 C391.537051,93.2491369 392.865163,89.60334 393.333915,85.124151 L416.06829,85.124151 C415.547454,91.8950182 413.099562,98.3012041 408.72454,104.342901 C401.745339,114.082533 391.4069,118.952276 377.708915,118.952276 C364.01093,118.952276 353.932906,114.889817 347.47454,106.764776 C341.016175,98.6397354 337.78704,88.0929658 337.78704,75.124151 C337.78704,60.4886611 341.354713,49.1085666 348.490165,40.983526 C355.625618,32.8584854 365.469269,28.796026 378.021415,28.796026 C388.698552,28.796026 397.435444,31.1918354 404.232353,35.983526 C411.029262,40.7752166 415.052659,49.2386736 416.302665,61.374151 L393.490165,61.374151 Z M436.50079,1.21790098 L458.37579,1.21790098 L458.37579,63.249151 L486.110165,31.217901 L513.68829,31.217901 L483.922665,63.796026 L514.860165,115.983526 L487.985165,115.983526 L467.59454,79.577276 L458.37579,89.186651 L458.37579,115.983526 L436.50079,115.983526 L436.50079,1.21790098 Z M564.43329,46.921026 C559.277014,46.921026 555.279658,48.5355932 552.441103,51.764776 C549.602547,54.9939588 547.81871,59.368915 547.08954,64.889776 L581.698915,64.889776 C581.33433,59.0043299 579.550494,54.5382287 576.347353,51.4913385 C573.144212,48.4444482 569.172897,46.921026 564.43329,46.921026 Z M564.43329,28.561651 C571.516659,28.561651 577.896803,29.8897627 583.573915,32.546026 C589.251027,35.2022893 593.93848,39.3949557 597.636415,45.124151 C600.969765,50.1762596 603.131202,56.035576 604.12079,62.702276 C604.69371,66.6085455 604.928082,72.2334893 604.823915,79.577276 L546.542665,79.577276 C546.855167,88.1189854 549.537431,94.1085088 554.58954,97.546026 C557.662472,99.6814533 561.360352,100.749151 565.68329,100.749151 C570.266646,100.749151 573.990567,99.4470807 576.855165,96.842901 C578.417673,95.436644 579.797867,93.4835385 580.99579,90.983526 L603.730165,90.983526 C603.157246,96.0356346 600.527063,101.165792 595.83954,106.374151 C588.547837,114.655442 578.339606,118.796026 565.21454,118.796026 C554.381153,118.796026 544.823956,115.306478 536.542665,108.327276 C528.261374,101.348074 524.12079,89.9940213 524.12079,74.264776 C524.12079,59.525119 527.857732,48.2231486 535.331728,40.358526 C542.805723,32.4939033 552.506147,28.561651 564.43329,28.561651 Z M616.193915,47.467901 L616.193915,31.608526 L628.068915,31.608526 L628.068915,7.85852598 L650.100165,7.85852598 L650.100165,31.608526 L663.92829,31.608526 L663.92829,47.467901 L650.100165,47.467901 L650.100165,92.467901 C650.100165,95.9575018 650.542869,98.1319592 651.42829,98.9913385 C652.313711,99.8507178 655.022017,100.280401 659.55329,100.280401 C660.230377,100.280401 660.946515,100.26738 661.701727,100.241338 C662.45694,100.215297 663.19912,100.176235 663.92829,100.124151 L663.92829,116.764776 L653.381415,117.155401 C642.860529,117.519986 635.673101,115.697088 631.818915,111.686651 C629.318902,109.134555 628.068915,105.202303 628.068915,99.889776 L628.068915,47.467901 L616.193915,47.467901 Z M676.470165,155.249151 L676.470165,142.827276 C680.376434,141.681437 683.110782,140.327284 684.67329,138.764776 C687.329553,136.160596 688.709748,132.020013 688.813915,126.342901 L688.813915,106.577276 C688.813915,99.1814057 690.246192,93.6996897 693.11079,90.1319635 C695.975387,86.5642373 700.532634,83.4522893 706.782665,80.796026 C699.959714,77.462676 695.25924,73.6736514 692.681102,69.4288385 C690.102964,65.1840256 688.813915,59.6502268 688.813915,52.827276 L688.813915,34.702276 C688.813915,28.9209971 687.889445,24.9887447 686.040477,22.905401 C684.19151,20.8220572 681.001437,19.3116557 676.470165,18.374151 L676.470165,5.95227598 C681.678524,6.00435958 685.688901,6.31685645 688.501415,6.88977598 C693.136855,7.77519708 697.199314,9.57205411 700.688915,12.280401 C704.178516,14.9887479 706.600366,18.3220479 707.95454,22.280401 C709.308713,26.2387541 709.98579,29.7022611 709.98579,32.671026 L709.98579,53.608526 C709.98579,61.0564799 711.678481,66.5251752 715.063915,70.014776 C717.147259,72.0981197 720.87118,74.0251838 726.23579,75.796026 L726.23579,85.249151 C721.808684,86.4991572 718.449343,88.1137244 716.157665,90.092901 C712.043061,93.6345854 709.98579,98.738701 709.98579,105.405401 L709.98579,129.858526 C709.98579,137.775232 707.251442,143.907983 701.782665,148.256963 C696.313887,152.605944 689.725412,154.884567 682.01704,155.092901 L676.470165,155.249151 Z" id="{bracket}"></path>
            <path d="M95.8601657,131.571456 C94.3668249,131.571456 92.9085062,131.816453 91.4851657,132.306456 C90.0618253,132.796458 88.7901713,133.496451 87.6701657,134.406456 C86.5501601,135.31646 85.6518358,136.424782 84.9751657,137.731456 C84.2984957,139.038129 83.9601657,140.531447 83.9601657,142.211456 C83.9601657,143.891464 84.2984957,145.384782 84.9751657,146.691456 C85.6518358,147.998129 86.5501601,149.106451 87.6701657,150.016456 C88.7901713,150.92646 90.0618253,151.626453 91.4851657,152.116456 C92.9085062,152.606458 94.3668249,152.851456 95.8601657,152.851456 C97.3535065,152.851456 98.8118253,152.606458 100.235166,152.116456 C101.658506,151.626453 102.93016,150.92646 104.050166,150.016456 C105.170171,149.106451 106.068496,147.998129 106.745166,146.691456 C107.421836,145.384782 107.760166,143.891464 107.760166,142.211456 C107.760166,140.531447 107.421836,139.038129 106.745166,137.731456 C106.068496,136.424782 105.170171,135.31646 104.050166,134.406456 C102.93016,133.496451 101.658506,132.796458 100.235166,132.306456 C98.8118253,131.816453 97.3535065,131.571456 95.8601657,131.571456 Z M95.8601657,126.391456 C98.4268452,126.391456 100.841821,126.718119 103.105166,127.371456 C105.36851,128.024792 107.340157,129.004782 109.020166,130.311456 C110.700174,131.618129 112.030161,133.263112 113.010166,135.246456 C113.990171,137.229799 114.480166,139.551442 114.480166,142.211456 C114.480166,144.871469 113.990171,147.193112 113.010166,149.176456 C112.030161,151.159799 110.700174,152.804782 109.020166,154.111456 C107.340157,155.418129 105.36851,156.363119 103.105166,156.946456 C100.841821,157.529792 98.4268452,157.821456 95.8601657,157.821456 C93.2934862,157.821456 90.8785104,157.529792 88.6151657,156.946456 C86.3518211,156.363119 84.3801741,155.418129 82.7001657,154.111456 C81.0201573,152.804782 79.6901706,151.159799 78.7101657,149.176456 C77.7301608,147.193112 77.2401657,144.871469 77.2401657,142.211456 C77.2401657,139.551442 77.7301608,137.229799 78.7101657,135.246456 C79.6901706,133.263112 81.0201573,131.618129 82.7001657,130.311456 C84.3801741,129.004782 86.3518211,128.024792 88.6151657,127.371456 C90.8785104,126.718119 93.2934862,126.391456 95.8601657,126.391456 Z M144.160166,140.111456 C148.733522,140.111456 151.020166,138.664803 151.020166,135.771456 C151.020166,134.604783 150.471838,133.683126 149.375166,133.006456 C148.278494,132.329786 146.540178,131.991456 144.160166,131.991456 L133.100166,131.991456 L133.100166,140.111456 L144.160166,140.111456 Z M144.300166,126.811456 C148.45352,126.811456 151.696821,127.499782 154.030166,128.876456 C156.363511,130.253129 157.530166,132.598106 157.530166,135.911456 C157.530166,137.171462 157.296835,138.291451 156.830166,139.271456 C156.363497,140.251461 155.74517,141.103119 154.975166,141.826456 C154.205162,142.549793 153.353504,143.13312 152.420166,143.576456 C151.486828,144.019791 150.530171,144.358121 149.550166,144.591456 L156.410166,154.601456 C156.783501,155.114792 157.19183,155.499788 157.635166,155.756456 C158.078501,156.013124 158.55683,156.211455 159.070166,156.351456 L159.070166,157.611456 L148.360166,157.611456 L148.360166,156.351456 C148.966835,156.351456 149.270166,156.141458 149.270166,155.721456 C149.270166,155.254787 148.920169,154.531461 148.220166,153.551456 L142.690166,145.291456 L132.960166,145.291456 L132.960166,155.301456 C132.960166,155.674791 133.111831,155.943122 133.415166,156.106456 C133.718501,156.26979 134.010164,156.351456 134.290166,156.351456 L134.290166,157.611456 L124.980166,157.611456 L124.980166,156.351456 C125.82017,156.351456 126.240166,156.001459 126.240166,155.301456 L126.240166,129.121456 C126.240166,128.421452 125.82017,128.071456 124.980166,128.071456 L124.980166,126.811456 L144.300166,126.811456 Z M186.650166,152.431456 C188.09684,152.431456 189.473493,152.326457 190.780166,152.116456 C192.086839,151.906455 193.230161,151.439793 194.210166,150.716456 C195.190171,149.993119 195.97183,148.943129 196.555166,147.566456 C197.138502,146.189782 197.430166,144.334801 197.430166,142.001456 C197.430166,139.668111 197.138502,137.836462 196.555166,136.506456 C195.97183,135.176449 195.190171,134.173126 194.210166,133.496456 C193.230161,132.819786 192.086839,132.39979 190.780166,132.236456 C189.473493,132.073122 188.09684,131.991456 186.650166,131.991456 L177.550166,131.991456 L177.550166,152.431456 L186.650166,152.431456 Z M169.220166,156.351456 C170.293504,156.351456 170.830166,156.001459 170.830166,155.301456 L170.830166,129.121456 C170.830166,128.421452 170.293504,128.071456 169.220166,128.071456 L169.220166,126.811456 L188.680166,126.811456 C191.433513,126.811456 193.790156,127.254785 195.750166,128.141456 C197.710176,129.028127 199.308493,130.183115 200.545166,131.606456 C201.781839,133.029796 202.69183,134.663113 203.275166,136.506456 C203.858502,138.349798 204.150166,140.251446 204.150166,142.211456 C204.150166,144.171465 203.870169,146.073113 203.310166,147.916456 C202.750163,149.759798 201.863505,151.393115 200.650166,152.816456 C199.436826,154.239796 197.873509,155.394785 195.960166,156.281456 C194.046823,157.168127 191.713513,157.611456 188.960166,157.611456 L169.220166,157.611456 L169.220166,156.351456 Z M242.300166,133.321456 C242.300166,132.434785 241.57684,131.991456 240.130166,131.991456 L223.050166,131.991456 L223.050166,138.991456 L233.830166,138.991456 C234.623503,138.991456 235.206831,138.933123 235.580166,138.816456 C235.953501,138.699788 236.140166,138.384792 236.140166,137.871456 L237.400166,137.871456 L237.400166,145.291456 L236.000166,145.291456 C236.140166,144.77812 235.953502,144.463123 235.440166,144.346456 C234.92683,144.229788 234.203504,144.171456 233.270166,144.171456 L223.050166,144.171456 L223.050166,152.431456 L240.970166,152.431456 C241.530169,152.431456 241.996831,152.303124 242.370166,152.046456 C242.743501,151.789788 242.930166,151.451458 242.930166,151.031456 L244.190166,151.031456 L244.190166,158.381456 L242.930166,158.381456 C242.930166,157.961454 242.743501,157.728123 242.370166,157.681456 C241.996831,157.634789 241.530169,157.611456 240.970166,157.611456 L215.280166,157.611456 L215.280166,156.351456 C215.5135,156.351456 215.746831,156.26979 215.980166,156.106456 C216.2135,155.943122 216.330166,155.674791 216.330166,155.301456 L216.330166,129.121456 C216.330166,128.74812 216.2135,128.47979 215.980166,128.316456 C215.746831,128.153122 215.5135,128.071456 215.280166,128.071456 L215.280166,126.811456 L240.130166,126.811456 C241.57684,126.811456 242.300166,126.39146 242.300166,125.551456 L243.560166,125.551456 L243.560166,133.321456 L242.300166,133.321456 Z M275.340166,140.111456 C279.913522,140.111456 282.200166,138.664803 282.200166,135.771456 C282.200166,134.604783 281.651838,133.683126 280.555166,133.006456 C279.458494,132.329786 277.720178,131.991456 275.340166,131.991456 L264.280166,131.991456 L264.280166,140.111456 L275.340166,140.111456 Z M275.480166,126.811456 C279.63352,126.811456 282.876821,127.499782 285.210166,128.876456 C287.543511,130.253129 288.710166,132.598106 288.710166,135.911456 C288.710166,137.171462 288.476835,138.291451 288.010166,139.271456 C287.543497,140.251461 286.92517,141.103119 286.155166,141.826456 C285.385162,142.549793 284.533504,143.13312 283.600166,143.576456 C282.666828,144.019791 281.710171,144.358121 280.730166,144.591456 L287.590166,154.601456 C287.963501,155.114792 288.37183,155.499788 288.815166,155.756456 C289.258501,156.013124 289.73683,156.211455 290.250166,156.351456 L290.250166,157.611456 L279.540166,157.611456 L279.540166,156.351456 C280.146835,156.351456 280.450166,156.141458 280.450166,155.721456 C280.450166,155.254787 280.100169,154.531461 279.400166,153.551456 L273.870166,145.291456 L264.140166,145.291456 L264.140166,155.301456 C264.140166,155.674791 264.291831,155.943122 264.595166,156.106456 C264.898501,156.26979 265.190164,156.351456 265.470166,156.351456 L265.470166,157.611456 L256.160166,157.611456 L256.160166,156.351456 C257.00017,156.351456 257.420166,156.001459 257.420166,155.301456 L257.420166,129.121456 C257.420166,128.421452 257.00017,128.071456 256.160166,128.071456 L256.160166,126.811456 L275.480166,126.811456 Z" id="order"></path>
        </g>
    </g>
</svg>